<?xml version="1.0" standalone="no"?>
<!DOCTYPE svg PUBLIC "-//W3C//DTD SVG 20010904//EN"
 "http://www.w3.org/TR/2001/REC-SVG-20010904/DTD/svg10.dtd">
<svg version="1.0" xmlns="http://www.w3.org/2000/svg"
 width="511.000000pt" height="255.000000pt" viewBox="0 0 511.000000 255.000000"
 preserveAspectRatio="xMidYMid meet">

<g transform="translate(0.000000,255.000000) scale(0.100000,-0.100000)"
fill="#000000" stroke="none">
<path d="M1890 1566 l0 -176 30 0 30 0 0 145 0 145 48 0 c38 0 53 -5 70 -23
40 -42 19 -100 -41 -112 -17 -4 -35 -13 -39 -19 -13 -18 -9 -36 7 -36 8 0 29
-22 46 -50 27 -44 35 -50 65 -50 26 0 33 3 28 13 -4 6 -18 29 -31 50 l-24 38
30 34 c40 46 47 86 24 132 -30 61 -62 77 -159 82 l-84 3 0 -176z"/>
<path d="M2321 1718 c-5 -13 -41 -92 -79 -175 l-70 -153 33 0 c27 0 35 5 45
30 12 29 14 30 82 30 60 0 69 2 64 16 -3 9 -6 20 -6 25 0 5 -23 9 -51 9 -58 0
-57 -7 -11 97 15 34 30 63 33 63 3 0 16 -24 29 -52 90 -207 97 -218 129 -218
l30 0 -20 48 c-11 26 -46 103 -77 172 -55 119 -59 125 -90 128 -26 3 -34 -1
-41 -20z"/>
<path d="M2580 1565 l0 -175 115 0 115 0 0 30 0 30 -85 0 -85 0 0 40 0 40 71
0 c69 0 71 1 65 23 -3 12 -6 25 -6 30 0 4 -29 7 -65 7 l-65 0 0 45 0 45 85 0
85 0 0 30 0 30 -115 0 -115 0 0 -175z"/>
<path d="M2850 1565 l0 -175 30 0 30 0 0 145 0 145 55 0 c95 0 145 -42 145
-121 0 -33 -6 -47 -34 -75 -28 -28 -42 -34 -75 -34 -35 0 -43 -4 -51 -26 -6
-14 -10 -27 -10 -30 0 -2 23 -4 52 -4 132 0 214 126 159 245 -35 77 -91 104
-218 105 l-83 0 0 -175z"/>
<path d="M3310 1565 l0 -175 25 0 c24 0 25 2 25 70 l0 70 74 0 c80 0 100 -11
94 -52 -3 -20 -9 -23 -56 -26 -46 -3 -54 -6 -67 -33 l-16 -29 66 0 c77 0 99 9
120 50 20 39 19 72 -4 102 -15 19 -18 34 -14 66 13 99 -26 132 -159 132 l-88
0 0 -175z m184 99 c40 -40 6 -74 -75 -74 l-59 0 0 45 0 45 59 0 c41 0 65 -5
75 -16z"/>
<path d="M3630 1565 l0 -175 30 0 30 0 0 175 0 175 -30 0 -30 0 0 -175z"/>
<path d="M3730 1565 l0 -175 30 0 30 0 0 117 0 118 65 -110 c36 -61 65 -113
65 -117 0 -5 16 -8 35 -8 l35 0 0 175 0 175 -30 0 -29 0 -3 -116 -3 -116 -68
116 c-62 106 -71 116 -98 116 l-29 0 0 -175z"/>
<path d="M1154 1646 c-117 -55 -169 -204 -110 -320 l24 -47 -25 -45 c-32 -56
-41 -145 -21 -194 59 -140 241 -195 359 -109 13 10 27 7 70 -14 67 -34 127
-35 195 -3 125 58 180 205 119 320 l-24 46 24 46 c69 129 -4 287 -151 330 -48
14 -66 15 -110 5 -30 -7 -63 -20 -75 -30 -20 -16 -23 -16 -76 11 -70 35 -129
36 -199 4z m170 -46 c23 -11 85 -64 138 -118 l98 -98 -33 -32 -33 -32 -79 81
c-44 44 -99 92 -123 106 -38 23 -46 24 -73 13 -42 -18 -63 -53 -56 -93 4 -26
-1 -39 -24 -65 -16 -17 -31 -32 -34 -32 -11 0 -35 69 -35 100 0 41 25 99 58
134 54 57 126 71 196 36z m318 -11 c78 -39 115 -131 88 -215 -13 -39 -201
-244 -225 -244 -6 0 -23 13 -38 28 l-27 28 91 89 c105 104 123 133 114 181 -8
43 -52 68 -106 61 -32 -4 -42 0 -65 24 -23 24 -25 31 -14 44 30 37 113 39 182
4z m-407 -139 c-20 -22 -31 -20 -22 5 4 8 14 15 23 15 16 0 16 -2 -1 -20z
m355 5 c21 -25 1 -31 -22 -7 -18 18 -19 22 -6 22 8 0 21 -7 28 -15z m-255 -55
l29 -30 -102 -104 c-87 -87 -102 -108 -102 -135 0 -44 16 -70 53 -86 22 -9 39
-10 58 -3 25 8 32 6 59 -22 36 -37 30 -52 -27 -71 -82 -27 -185 17 -223 95
-26 55 -25 89 5 153 24 53 186 233 210 233 6 0 24 -14 40 -30z m95 -95 l24
-26 -27 -27 -27 -27 -27 27 -27 27 24 26 c13 14 26 25 30 25 4 0 17 -11 30
-25z m-15 -165 c92 -91 106 -100 139 -100 65 0 114 67 86 119 -7 14 -2 25 25
51 l33 32 19 -28 c27 -42 24 -129 -6 -177 -28 -46 -85 -86 -135 -94 -64 -10
-112 17 -226 132 l-104 105 29 30 c16 16 31 30 34 30 3 0 51 -45 106 -100z
m-160 -40 c3 -6 -3 -10 -14 -10 -12 0 -21 2 -21 4 0 2 -3 12 -7 21 -5 15 -3
16 15 6 11 -6 24 -16 27 -21z m335 10 c-6 -11 -18 -20 -27 -20 -14 0 -14 2 2
20 10 11 22 20 27 20 5 0 4 -9 -2 -20z"/>
<path d="M1890 1168 c0 -90 5 -180 11 -202 16 -58 85 -121 147 -135 98 -21
183 14 234 96 22 36 23 49 26 221 l4 182 -41 0 -41 0 0 -162 c0 -178 -8 -206
-65 -244 -35 -23 -100 -22 -133 3 -53 39 -62 73 -62 246 l0 157 -40 0 -40 0 0
-162z"/>
<path d="M2360 1080 l0 -250 40 0 40 0 0 175 c0 96 3 175 8 175 4 0 41 -54 82
-120 41 -66 77 -120 80 -120 3 0 41 55 85 123 l80 122 3 -177 2 -178 40 0 40
0 0 250 0 250 -47 0 -48 -1 -75 -118 c-41 -66 -78 -117 -81 -115 -3 2 -39 55
-79 119 l-73 115 -49 0 -48 0 0 -250z"/>
<path d="M3106 1288 c-11 -24 -29 -65 -42 -93 -13 -27 -55 -119 -93 -204 -39
-85 -71 -156 -71 -158 0 -1 20 -3 45 -3 45 0 46 1 65 45 l19 45 101 0 c63 0
100 4 100 10 0 6 -7 24 -15 40 -15 29 -19 30 -80 30 -36 0 -65 2 -65 4 0 8 93
211 100 220 5 4 11 -3 15 -15 4 -13 36 -85 70 -159 34 -74 70 -154 80 -177 18
-41 21 -43 63 -43 37 0 43 3 38 18 -3 10 -53 121 -110 247 l-104 230 -49 3
-49 3 -18 -43z"/>
<path d="M3490 1080 l0 -250 40 0 40 0 0 250 0 250 -40 0 -40 0 0 -250z"/>
<path d="M3630 1080 l0 -250 40 0 40 0 0 210 0 210 59 0 c76 0 106 -12 126
-49 34 -67 1 -130 -75 -140 -39 -5 -45 -10 -61 -48 l-18 -43 32 0 c29 -1 37
-8 75 -70 l44 -70 49 0 c38 0 48 3 43 13 -4 6 -27 42 -51 79 l-42 67 30 21
c82 59 92 187 21 264 -43 46 -80 56 -202 56 l-110 0 0 -250z"/>
</g>
</svg>
